<svg width="169" height="36" viewBox="0 0 169 36" fill="none" xmlns="http://www.w3.org/2000/svg">
<path fill-rule="evenodd" clip-rule="evenodd" d="M13.8226 25.7955C16.5099 30.2015 21.4383 33.1576 26.9234 33.1576C35.0279 33.1576 39.4894 26.1635 39.4894 26.1635L40.0636 28.0265C36.3115 32.9064 29.6085 35.8461 22.1092 35.8461C13.4751 35.8461 6.02875 31.7272 2.60246 25.7875C1.31242 23.5503 0.592285 21.0513 0.592285 18.4195C0.592285 8.79512 10.2247 0.99353 22.1089 0.99353C30.5058 0.99353 37.2664 4.59017 40.8153 9.80238L26.7261 18.2392L34.7668 5.8926C32.4664 4.44583 29.6441 3.09105 26.7261 3.09105C18.4773 3.09105 11.6833 9.97459 11.6833 18.2231C11.6833 20.9869 12.4681 23.5837 13.8226 25.7955ZM51.5476 25.7906C51.5054 26.072 51.4843 26.3562 51.4845 26.6408C51.4845 29.7719 54.023 32.3108 57.1545 32.3108C60.2859 32.3108 62.8241 29.7722 62.8241 26.6408C62.8243 26.3552 62.8031 26.0699 62.7606 25.7875C62.3506 23.0627 59.9969 20.9711 57.1541 20.9711C54.3117 20.9711 51.9577 23.0627 51.5476 25.7906ZM75.4043 35.2796L72.5864 25.7875L68.3879 11.6459C68.3879 11.6459 65.7353 4.42291 57.3648 7.46822C48.9942 10.5138 47.1067 11.6459 47.1067 11.6459H58.4516L61.1441 20.648C59.073 18.8184 56.0416 17.6644 52.6642 17.6644C46.7139 17.6644 41.8378 21.2471 41.3936 25.7875C41.3719 26.0182 41.3608 26.2443 41.3608 26.472C41.3608 31.3367 46.4212 35.2796 52.6642 35.2796C57.882 35.2796 62.2744 32.5251 63.5759 28.7798L65.5195 35.2796H75.4043ZM104.191 25.7877V35.2798H94.0197V14.4248C94.0197 12.8902 92.7756 11.6461 91.241 11.6461C90.0955 11.6459 89.0672 12.3486 88.6514 13.416V35.2798H78.6689V11.6461H72.8472C72.8472 11.6461 80.9461 6.73962 83.7545 6.73962C86.416 6.73962 88.3859 8.78449 88.6322 11.3894C89.3862 10.9826 90.1391 10.5602 90.8823 10.1431C93.9996 8.39385 96.9476 6.73962 99.1055 6.73962C101.866 6.73962 104.114 8.93998 104.191 11.6833V25.7877ZM121.275 30.4662L119.859 25.7876L115.583 11.6458C115.815 9.80162 117.634 8.01941 119.541 8.01941C121.468 8.01941 123.054 9.47423 123.262 11.3456L127.488 25.7876L128.691 29.9C128.707 30.0418 128.716 30.1859 128.716 30.3324C128.716 32.3999 127.04 34.0755 124.972 34.0755C122.95 34.0755 121.302 32.4714 121.275 30.4662ZM136.046 25.7895C134.12 31.6302 128.619 35.8463 122.132 35.8463C115.645 35.8463 110.144 31.6305 108.217 25.7877C107.729 24.3068 107.482 22.7574 107.483 21.1983C107.483 13.1084 114.042 6.55066 122.132 6.55066C130.222 6.55066 136.78 13.1084 136.78 21.1983C136.78 22.8018 136.523 24.3455 136.046 25.7895ZM152.887 35.2798V25.7877V13.416C153.302 12.3486 154.331 11.6459 155.476 11.6461C157.011 11.6461 158.255 12.8902 158.255 14.4248V35.2798H168.426V11.6833C168.35 8.93998 166.102 6.73962 163.341 6.73962C161.183 6.73962 158.236 8.39346 155.119 10.1425C154.376 10.5598 153.622 10.9824 152.868 11.3894C152.621 8.78449 150.652 6.73962 147.99 6.73962C145.181 6.73962 137.321 11.6461 137.321 11.6461H142.904V35.2798H152.887Z" fill="#04193F" fill-opacity="0.7"/>
</svg>
