<svg xmlns="http://www.w3.org/2000/svg" xmlns:xlink="http://www.w3.org/1999/xlink" viewBox="0 0 230.69 142.18"><defs><style>.a{fill:url(#a);}.b{fill:url(#b);}.c{fill:url(#c);}.d{fill:url(#d);}.e{fill:url(#e);}.f{fill:url(#f);}</style><linearGradient id="a" x1="165.52" y1="21.29" x2="119.46" y2="107.68" gradientUnits="userSpaceOnUse"><stop offset="0.01" stop-color="#04193f"/><stop offset="1" stop-color="#04ffff"/></linearGradient><linearGradient id="b" x1="115.33" y1="147.25" x2="115.99" y2="-6.71" xlink:href="#a"/><linearGradient id="c" x1="17.23" y1="126.31" x2="69.92" y2="127.13" xlink:href="#a"/><linearGradient id="d" x1="-4.69" y1="150.06" x2="107.79" y2="78.93" xlink:href="#a"/><linearGradient id="e" x1="143.56" y1="9.58" x2="97.5" y2="95.97" xlink:href="#a"/><linearGradient id="f" x1="103.48" y1="147.18" x2="104.13" y2="-6.75" xlink:href="#a"/></defs><path class="a" d="M171.59,53a52.49,52.49,0,0,1-7.47,17.25,59.46,59.46,0,0,1-15,15.85c-2.23,1.35-4.5,2.71-6.8,4.06q-6.75,4-13.84,7.91c-4.92,2.72-10.16,5.44-15.11,8l-.65-.52a44.46,44.46,0,0,1-10.29-12.42c0-.06,0-.09-.07-.15,3-1.55,6.12-3.21,9.05-4.75,2.67-1.43,5.37-2.87,8.08-4.35h0a48.81,48.81,0,0,0,16.55-18.46A46.43,46.43,0,0,0,141,46.6l1.62-.82c10.26-5.21,20-9.81,28.86-13.72a47.35,47.35,0,0,1,1.11,8.22A45.91,45.91,0,0,1,171.59,53Z"/><path class="b" d="M180.79,113.87a78.41,78.41,0,0,1-57.37,28.21c-19.37.86-36.56-4-50-13.14h0c-.93-.64-1.83-1.3-2.72-2-.24-.18-.49-.37-.72-.56a66.09,66.09,0,0,1-12.08-12.25l-.39-.52c-.74-1-1.45-2-2.13-3.07a65,65,0,0,1-5.2-9.49c.29-.19.57-.41.85-.62C62.12,92.34,76.51,83,92.72,73.28h0c.17,1.7.4,3.34.7,5A53.84,53.84,0,0,0,97.5,91.32c.5,1.12,1.06,2.21,1.65,3.27-.12,0,.11-.06,0,0a46.48,46.48,0,0,0,10.71,13.23s0,0,0,0c.18.17.35.31.53.47.85.7,1.71,1.38,2.61,2,10.9,8,25.21,11.71,40.74,11A62.18,62.18,0,0,0,180.79,113.87Z"/><path class="c" d="M66.15,128a261.44,261.44,0,0,1-35,11.53c-3.36.7-7,1.19-10.24.15a7.82,7.82,0,0,1-5.1-4.34c-.43-1.22-1.75-4.24,3.62-10.55,2.45-2.87,6.74-7.58,11.38-12-3.14,3.41-4.49,5.94-3.69,7.37,1.6,2.88,11.64.77,26.93-5.08.16.25.34.5.52.75s.31.42.45.6A69.09,69.09,0,0,0,66.15,128Z"/><path class="d" d="M175,69.4c-.86.59-1.74,1.19-2.62,1.77a60.53,60.53,0,0,0,4.56-9.8c14.45-12.09,31.76-31.47,35.9-40.18,1.22-2.54-.17-3.83-.17-3.83a4.78,4.78,0,0,0-.35-.43.71.71,0,0,0-.12-.13c-2.92-2.79-17.34,1.28-38,10.1l-.5.22-1,.43-2.21,1-.11.05c-8.86,3.89-18.86,8.62-29.37,13.94v0c-1.18.6-2.39,1.2-3.59,1.82-7.72,3.95-15.76,8.23-24,12.79-6,3.32-11.79,6.64-17.37,9.92-1.23.72-2.45,1.42-3.64,2.14h0l-1.61,1c-16.59,9.89-31,19.32-41.93,27.35-1.08.79-2.13,1.58-3.15,2.34a122,122,0,0,0-14.94,12.85c-4.64,4.46-8.93,9.17-11.38,12-5.37,6.31-4.05,9.33-3.62,10.55a7.82,7.82,0,0,0,5.1,4.34c3.22,1,6.88.55,10.24-.15-16.36,3.93-27.45,3.68-30.4-1.62C-3.88,129.49,13,110.49,42.37,88.7c1.05-.79,2.12-1.57,3.2-2.36a0,0,0,0,0,0,0q5.12-3.72,10.69-7.53c2.08-1.42,4.2-2.86,6.37-4.29l2.19-1.44c8.79-5.74,18.26-11.57,28.25-17.33l4.09-2.34c1.65-.94,3.34-1.87,5-2.81,11.45-6.35,22.7-12.14,33.48-17.27,1.11-.54,2.21-1.06,3.31-1.57q8.37-3.91,16.3-7.29l2.37-1c1.55-.66,3.11-1.29,4.64-1.92l2.29-.91.43-.17h0L166.2,20l1.9-.74a1.7,1.7,0,0,0,.24-.09c.45-.18.9-.34,1.35-.51,32.22-12.29,55.75-16,60.24-7.92C235.24,20.31,212.42,43.76,175,69.4Z"/><path class="e" d="M161.17,18.06l-4.43,1.83h0c-.46.22-1,.4-1.41.61s-1,.4-1.47.61c-5.14,2.18-10.49,4.56-16.42,7.34a20.41,20.41,0,0,0-1.8-2.54,19.64,19.64,0,0,0-10.34-7.12c-.36-.09-.73-.18-1.13-.24a18.2,18.2,0,0,0-7.09.09h0l-.49.12A48.2,48.2,0,0,1,122.28,16h0a45.66,45.66,0,0,1,15.35-3.36c.27,0,.52,0,.79,0a46.57,46.57,0,0,1,6.27.24h0c.43.06.83.09,1.22.15A44.15,44.15,0,0,1,161.17,18.06Z"/><path class="f" d="M163.89,17a7.92,7.92,0,0,1-.89.36c-.58.25-1.16.46-1.74.71l-.09,0A44.15,44.15,0,0,0,146,13c-.39-.06-.79-.09-1.22-.15h0a46.57,46.57,0,0,0-6.27-.24c-.27,0-.52,0-.79,0A45.66,45.66,0,0,0,122.31,16h0a48.2,48.2,0,0,0-5.75,2.72,1.77,1.77,0,0,0-.4.24c-.55.28-1.07.62-1.56.92-10.88,6.88-17.79,18-20.67,31.13-.88.52-1.77,1-2.66,1.53C81.46,58.23,71.89,64.1,62.81,70,59.87,72,57,73.89,54.19,75.78c-3.52,2.42-6.61,4.59-9.36,6.58A74.33,74.33,0,0,1,44,73.89C42.29,35,75,1.94,117.2.08c.61,0,1.26-.06,1.84-.06h0a83.83,83.83,0,0,1,9.14.3h.06a68.17,68.17,0,0,1,25,7.86s0,0,.06,0a44,44,0,0,1,7.1,5.2A41.74,41.74,0,0,1,163.89,17Z"/></svg>