<svg width="16" height="16" viewBox="0 0 16 16" fill="none" xmlns="http://www.w3.org/2000/svg">
<path d="M7.99966 4.91797C7.18208 4.91797 6.398 5.24275 5.81988 5.82086C5.24177 6.39897 4.91699 7.18306 4.91699 8.00064C4.91699 8.81821 5.24177 9.6023 5.81988 10.1804C6.398 10.7585 7.18208 11.0833 7.99966 11.0833C8.81723 11.0833 9.60132 10.7585 10.1794 10.1804C10.7575 9.6023 11.0823 8.81821 11.0823 8.00064C11.0823 7.18306 10.7575 6.39897 10.1794 5.82086C9.60132 5.24275 8.81723 4.91797 7.99966 4.91797ZM7.99966 10.0026C7.46852 10.0026 6.95913 9.79164 6.58356 9.41607C6.20799 9.04049 5.99699 8.53111 5.99699 7.99997C5.99699 7.46883 6.20799 6.95944 6.58356 6.58387C6.95913 6.2083 7.46852 5.9973 7.99966 5.9973C8.5308 5.9973 9.04019 6.2083 9.41576 6.58387C9.79133 6.95944 10.0023 7.46883 10.0023 7.99997C10.0023 8.53111 9.79133 9.04049 9.41576 9.41607C9.04019 9.79164 8.5308 10.0026 7.99966 10.0026Z" fill="white"/>
<path d="M11.204 5.52327C11.6009 5.52327 11.9227 5.20151 11.9227 4.8046C11.9227 4.4077 11.6009 4.08594 11.204 4.08594C10.8071 4.08594 10.4854 4.4077 10.4854 4.8046C10.4854 5.20151 10.8071 5.52327 11.204 5.52327Z" fill="white"/>
<path d="M13.6883 4.07408C13.534 3.67554 13.2981 3.31361 12.9959 3.01146C12.6936 2.70931 12.3316 2.4736 11.933 2.31942C11.4665 2.14432 10.9738 2.04965 10.4756 2.03942C9.83364 2.01142 9.63031 2.00342 8.00231 2.00342C6.37431 2.00342 6.16564 2.00342 5.52898 2.03942C5.03124 2.04912 4.53881 2.14382 4.07298 2.31942C3.67427 2.47342 3.31215 2.70906 3.00987 3.01124C2.70758 3.31341 2.4718 3.67543 2.31764 4.07408C2.14251 4.54049 2.04805 5.03331 2.03831 5.53142C2.00964 6.17275 2.00098 6.37608 2.00098 8.00475C2.00098 9.63275 2.00098 9.84008 2.03831 10.4781C2.04831 10.9768 2.14231 11.4688 2.31764 11.9361C2.47223 12.3346 2.70824 12.6965 3.0106 12.9986C3.31296 13.3007 3.67502 13.5365 4.07364 13.6907C4.5386 13.8729 5.03122 13.9743 5.53031 13.9908C6.17231 14.0188 6.37564 14.0274 8.00364 14.0274C9.63164 14.0274 9.84031 14.0274 10.477 13.9908C10.975 13.9806 11.4678 13.8862 11.9343 13.7114C12.3328 13.5569 12.6947 13.321 12.997 13.0187C13.2992 12.7165 13.5351 12.3546 13.6896 11.9561C13.865 11.4894 13.959 10.9974 13.969 10.4988C13.9976 9.85742 14.0063 9.65408 14.0063 8.02542C14.0063 6.39675 14.0063 6.19008 13.969 5.55208C13.9612 5.04693 13.8663 4.54692 13.6883 4.07408ZM12.8763 10.4288C12.872 10.813 12.8019 11.1936 12.669 11.5541C12.5689 11.8133 12.4156 12.0488 12.219 12.2452C12.0225 12.4417 11.7869 12.5948 11.5276 12.6947C11.1711 12.827 10.7946 12.8972 10.4143 12.9021C9.78098 12.9314 9.60231 12.9388 7.97831 12.9388C6.35298 12.9388 6.18698 12.9388 5.54164 12.9021C5.1616 12.8974 4.78519 12.8273 4.42898 12.6947C4.16877 12.5954 3.93231 12.4425 3.7349 12.2461C3.5375 12.0496 3.38353 11.8138 3.28298 11.5541C3.15194 11.1975 3.08185 10.8213 3.07564 10.4414C3.04698 9.80808 3.04031 9.62942 3.04031 8.00542C3.04031 6.38075 3.04031 6.21475 3.07564 5.56875C3.07995 5.18477 3.15008 4.80436 3.28298 4.44408C3.48631 3.91808 3.90298 3.50408 4.42898 3.30275C4.78537 3.17084 5.16166 3.10073 5.54164 3.09542C6.17564 3.06675 6.35364 3.05875 7.97831 3.05875C9.60298 3.05875 9.76964 3.05875 10.4143 3.09542C10.7946 3.09999 11.1712 3.17013 11.5276 3.30275C11.7869 3.40293 12.0224 3.55622 12.219 3.75277C12.4155 3.94932 12.5688 4.1848 12.669 4.44408C12.8 4.80072 12.8701 5.17686 12.8763 5.55675C12.905 6.19075 12.9123 6.36875 12.9123 7.99342C12.9123 9.61742 12.9123 9.79208 12.8836 10.4294H12.8763V10.4288Z" fill="white"/>
</svg>
