<svg width="16" height="16" viewBox="0 0 16 16" fill="none" xmlns="http://www.w3.org/2000/svg">
<path d="M13.0883 5.3312C13.097 5.44787 13.097 5.56387 13.097 5.67987C13.097 9.22987 10.395 13.3205 5.45701 13.3205C3.93567 13.3205 2.52234 12.8799 1.33301 12.1145C1.54901 12.1392 1.75701 12.1479 1.98167 12.1479C3.19034 12.1508 4.36477 11.7466 5.31567 11.0005C4.75529 10.9904 4.21206 10.8055 3.76183 10.4717C3.31161 10.1379 2.97686 9.6718 2.80434 9.13853C2.97034 9.1632 3.13701 9.17987 3.31167 9.17987C3.55234 9.17987 3.79434 9.14653 4.01901 9.08853C3.41085 8.96574 2.86399 8.6361 2.47142 8.15566C2.07885 7.67521 1.8648 7.07363 1.86567 6.4532V6.41987C2.22367 6.6192 2.63901 6.74387 3.07901 6.76053C2.7104 6.51559 2.40815 6.18322 2.19923 5.79306C1.99031 5.40291 1.88122 4.9671 1.88167 4.52453C1.88167 4.02587 2.01434 3.56853 2.24701 3.16987C2.92177 3.99988 3.76334 4.67891 4.71723 5.16297C5.67112 5.64704 6.71605 5.92534 7.78434 5.97987C7.74301 5.77987 7.71767 5.57253 7.71767 5.36453C7.7175 5.01184 7.78684 4.66257 7.92173 4.33669C8.05661 4.01081 8.25441 3.71472 8.5038 3.46532C8.75319 3.21593 9.04929 3.01814 9.37517 2.88325C9.70105 2.74836 10.0503 2.67902 10.403 2.6792C11.1763 2.6792 11.8743 3.0032 12.365 3.5272C12.9662 3.41094 13.5427 3.19148 14.069 2.87853C13.8686 3.49908 13.4488 4.02527 12.8883 4.35853C13.4215 4.29772 13.9426 4.1575 14.4343 3.94253C14.0671 4.47793 13.612 4.94743 13.0883 5.3312Z" fill="white"/>
</svg>
