<svg width="200" height="46" viewBox="0 0 200 46" fill="none" xmlns="http://www.w3.org/2000/svg">
<g clip-path="url(#clip0_576_30)">
<path d="M39.0994 24.6999C38.7994 26.0999 38.1994 27.4999 37.3994 28.6999C36.4994 30.0999 35.2994 31.3999 33.9994 32.3999C33.4994 32.6999 32.9994 32.9999 32.3994 33.2999C31.3994 33.8999 30.2994 34.4999 29.2994 35.0999C28.1994 35.6999 26.9994 36.3999 25.8994 36.9999H25.6994C24.7994 36.1999 23.9994 35.1999 23.3994 34.0999L25.4994 32.9999C26.0994 32.6999 26.6994 32.2999 27.2994 31.9999C28.8994 30.8999 30.1994 29.4999 31.0994 27.6999C31.7994 26.2999 32.0994 24.7999 32.1994 23.2999L32.5994 23.0999C34.8994 21.8999 37.0994 20.7999 39.1994 19.8999C39.2994 20.4999 39.3994 21.1999 39.4994 21.7999C39.3994 22.6999 39.2994 23.6999 39.0994 24.6999Z" fill="url(#paint0_linear_576_30)"/>
<path d="M41.1994 38.9C39.5994 40.9 37.5994 42.5 35.3994 43.6C33.0994 44.7 30.6994 45.4 28.1994 45.5C24.1994 45.8 20.1994 44.7 16.7994 42.4C16.5994 42.3 16.3994 42.1 16.1994 41.9C16.0994 41.9 16.0994 41.8 15.9994 41.8C14.9994 41 13.9994 40 13.1994 38.9L13.0994 38.8C12.8994 38.6 12.7994 38.3 12.5994 38.1C12.0994 37.4 11.6994 36.7 11.3994 35.9C11.4994 35.9 11.4994 35.8 11.5994 35.8C14.0994 33.9 17.3994 31.7 21.0994 29.5C21.0994 29.9 21.1994 30.3 21.2994 30.7C21.4994 31.8 21.7994 32.8 22.1994 33.8C22.2994 34.1 22.3994 34.3 22.5994 34.6C23.1994 35.8 23.9994 36.8 24.9994 37.7L25.0994 37.8C25.2994 38 25.4994 38.1 25.6994 38.3C28.3994 40.2 31.6994 41.1 34.9994 40.9C37.1994 40.6 39.2994 40 41.1994 38.9Z" fill="url(#paint1_linear_576_30)"/>
<path d="M15.0996 42.2001C12.4996 43.3001 9.79962 44.2001 7.09962 44.9001C6.29962 45.1001 5.49962 45.1001 4.79962 44.9001C4.49962 44.8001 4.29962 44.7001 4.09962 44.5001C3.89962 44.3001 3.69962 44.1001 3.59962 43.8001C3.49962 43.5001 3.19962 42.8001 4.39962 41.3001C4.99962 40.8001 5.99962 39.7001 6.99962 38.6001C6.29962 39.4001 5.99962 40.0001 6.19962 40.3001C6.59962 41.0001 8.89962 40.5001 12.2996 39.1001L12.3996 39.3001L12.4996 39.4001C13.2996 40.5001 14.0996 41.4001 15.0996 42.2001Z" fill="url(#paint2_linear_576_30)"/>
<path d="M39.8998 28.5999L39.2998 28.9999C39.6998 28.2999 40.0998 27.4999 40.2998 26.6999C43.5998 23.7999 47.4998 19.3999 48.4998 17.2999C48.7998 16.6999 48.4998 16.3999 48.4998 16.3999L48.3998 16.2999C47.6998 15.6999 44.4998 16.5999 39.6998 18.6999H39.5998L39.3998 18.7999L38.8998 18.9999C36.8998 19.8999 34.5998 20.9999 32.1998 22.2999L31.3998 22.6999C29.5998 23.5999 27.7998 24.5999 25.8998 25.6999C24.4998 26.4999 23.1998 27.1999 21.8998 27.9999L21.0998 28.4999L20.6998 28.6999C16.8998 30.9999 13.5998 33.1999 11.1998 35.0999L10.4998 35.5999C9.29977 36.4999 8.19977 37.4999 7.09977 38.5999C5.99977 39.5999 5.09977 40.6999 4.49977 41.3999C3.29977 42.8999 3.59977 43.4999 3.69977 43.8999C3.79977 44.0999 3.99977 44.3999 4.19977 44.4999C4.39977 44.6999 4.59977 44.7999 4.89977 44.8999C5.69977 45.0999 6.49977 45.0999 7.19977 44.8999C3.49977 45.7999 0.899774 45.7999 0.299774 44.4999C-0.800226 42.4999 3.09977 38.0999 9.79977 32.9999L10.4998 32.4999C11.2998 31.8999 12.0998 31.2999 12.8998 30.6999L14.3998 29.6999L14.8998 29.3999C16.8998 28.0999 19.0998 26.6999 21.2998 25.3999L22.1998 24.8999L23.2998 24.1999C25.8998 22.6999 28.4998 21.2999 30.8998 20.1999L31.6998 19.7999C32.9998 19.1999 34.1998 18.5999 35.3998 18.0999L35.8998 17.8999L36.9998 17.4999L37.4998 17.2999H37.5998L37.8998 17.1999L38.2998 16.9999C38.2998 16.9999 38.2998 16.9999 38.3998 16.9999L38.6998 16.8999C45.9998 13.9999 51.3998 13.1999 52.3998 15.0999C53.5998 17.0999 48.3998 22.5999 39.8998 28.5999Z" fill="url(#paint3_linear_576_30)"/>
<path d="M36.7 16.5997L35.7 16.9997L35.4 17.0997L35 17.2997C33.8 17.7997 32.6 18.3997 31.3 18.9997C31.2 18.7997 31 18.5997 30.9 18.3997C30.3 17.5997 29.5 16.9997 28.5 16.6997L28.2 16.5997C27.7 16.4997 27.1 16.4997 26.6 16.5997H26.5C26.9 16.3997 27.4 16.0997 27.8 15.9997C28.9 15.4997 30.1 15.2997 31.3 15.1997H31.5C32 15.1997 32.4 15.1997 32.9 15.2997H33.2C34.4 15.4997 35.6 15.9997 36.7 16.5997Z" fill="url(#paint4_linear_576_30)"/>
<path d="M37.3001 16.2998C37.2001 16.2998 37.2001 16.3998 37.1 16.3998L36.7001 16.5998C35.6001 15.9998 34.4001 15.5998 33.2001 15.3998H32.9001C32.4001 15.3998 32.0001 15.2998 31.5001 15.2998H31.3001C30.1 15.3998 28.9001 15.5998 27.8001 16.0998C27.4001 16.2998 26.9001 16.4998 26.5001 16.6998C26.5001 16.6998 26.4001 16.6998 26.4001 16.7998C26.3001 16.8998 26.2001 16.8998 26.0001 16.9998C24.8001 17.7998 23.7001 18.8998 22.9001 20.0998C22.1001 21.2998 21.5001 22.6998 21.3001 24.1998L20.7001 24.5998C18.5001 25.8998 16.3001 27.2998 14.2001 28.6998C13.5001 29.0998 12.9001 29.5998 12.2001 29.9998C11.4001 30.5998 10.7001 31.0998 10.1001 31.4998C10.0001 30.7998 9.90005 30.1998 9.90005 29.4998C9.50005 20.3998 17.0001 12.6998 26.6001 12.2998H27.0001C27.7001 12.2998 28.4001 12.2998 29.1001 12.3998C31.1001 12.5998 33.0001 13.1998 34.8001 14.1998C35.4001 14.4998 35.9001 14.9998 36.4001 15.3998C36.8001 15.7998 37.1 15.9998 37.3001 16.2998Z" fill="url(#paint5_linear_576_30)"/>
<path d="M91.4998 22.9999C91.4998 28.7999 89.2998 34.3999 85.2998 38.5999C81.3998 42.7999 75.9998 45.2999 70.2998 45.4999H65.2998C64.3998 45.4999 63.5998 45.2999 62.7998 44.9999C61.9998 44.6999 61.2998 44.1999 60.6998 43.5999C60.0998 42.9999 59.5998 42.1999 59.2998 41.3999C58.9998 40.5999 58.7998 39.6999 58.7998 38.7999V7.0999C58.7998 6.1999 58.9998 5.3999 59.2998 4.4999C59.5998 3.6999 60.0998 2.9999 60.6998 2.2999C61.2998 1.6999 61.9998 1.1999 62.7998 0.899902C63.5998 0.599902 64.3998 0.399902 65.2998 0.399902H70.2998C75.9998 0.599902 81.3998 3.0999 85.2998 7.2999C89.2998 11.5999 91.4998 17.1999 91.4998 22.9999ZM84.9998 21.9999C84.4998 13.5999 77.1998 7.0999 68.9998 7.0999H65.4998V38.8999H69.5998C71.6998 38.8999 73.7998 38.3999 75.7998 37.5999C77.7998 36.7999 79.4998 35.4999 80.8998 33.8999C82.2998 32.2999 83.4998 30.3999 84.1998 28.3999C84.8998 26.3999 85.0998 24.0999 84.9998 21.9999Z" fill="white"/>
<path d="M127.199 30.4998V45.4998C126.099 45.4998 124.999 45.1998 123.999 44.5998C122.999 43.9998 122.199 43.1998 121.599 42.1998C118.999 44.2998 115.799 45.3998 112.499 45.3998C109.199 45.3998 105.999 44.1998 103.399 42.0998C100.799 39.9998 98.9993 36.9998 98.2993 33.6998C97.5993 30.3998 97.9993 26.8998 99.3993 23.8998C100.799 20.8998 103.199 18.3998 106.199 16.8998C109.199 15.3998 112.599 14.9998 115.799 15.7998C118.999 16.4998 121.899 18.3998 123.999 20.9998C126.099 23.7998 127.199 27.0998 127.199 30.4998ZM120.699 30.4998C120.699 28.7998 120.199 27.1998 119.299 25.8998C118.399 24.4998 117.099 23.4998 115.599 22.7998C114.099 22.1998 112.499 21.9998 110.899 22.3998C109.299 22.6998 107.899 23.4998 106.699 24.6998C105.599 25.8998 104.799 27.3998 104.499 28.9998C104.199 30.5998 104.399 32.2998 104.999 33.7998C105.599 35.2998 106.699 36.5998 107.999 37.4998C109.299 38.3998 110.899 38.8998 112.499 38.8998C113.599 38.8998 114.599 38.6998 115.599 38.2998C116.599 37.8998 117.499 37.2998 118.299 36.4998C119.099 35.6998 119.699 34.7998 120.099 33.7998C120.499 32.7998 120.699 31.5998 120.699 30.4998Z" fill="white"/>
<path d="M161.3 31.2999C161.3 31.5999 161.3 31.8999 161.2 32.1999H161.3V45.5999C160.2 45.5999 159.2 45.2999 158.2 44.7999C157.3 44.2999 156.5 43.4999 155.9 42.5999C153.2 44.6999 149.9 45.7999 146.5 45.4999C139.2 44.9999 133.6 38.3999 133.6 30.7999V15.3999C134.5 15.3999 135.3 15.5999 136.1 15.8999C136.9 16.1999 137.6 16.6999 138.2 17.2999C138.8 17.8999 139.3 18.6999 139.6 19.4999C139.9 20.2999 140.1 21.1999 140.1 22.0999V31.2999C140.1 32.3999 140.3 33.3999 140.7 34.3999C141.1 35.3999 141.7 36.1999 142.5 36.8999C143.3 37.5999 144.2 38.0999 145.1 38.4999C146.1 38.7999 147.1 38.8999 148.1 38.7999C149.9 38.5999 151.6 37.5999 152.9 36.1999C154.1 34.7999 154.8 32.8999 154.8 30.9999V22.0999C154.8 20.2999 155.5 18.5999 156.7 17.3999C157.9 16.1999 159.6 15.4999 161.3 15.3999V31.2999Z" fill="white"/>
<path d="M166.7 6.1999C166.7 5.3999 166.9 4.5999 167.4 3.8999C167.8 3.1999 168.5 2.6999 169.2 2.2999C169.9 1.9999 170.8 1.8999 171.6 1.9999C172.4 2.1999 173.1 2.5999 173.7 3.0999C174.3 3.6999 174.7 4.3999 174.8 5.1999C175 5.9999 174.9 6.8999 174.6 7.5999C174.3 8.3999 173.8 8.9999 173.1 9.4999C172.4 9.9999 171.6 10.1999 170.8 10.1999C170.3 10.1999 169.7 10.0999 169.2 9.8999C168.7 9.6999 168.2 9.3999 167.9 8.9999C167.5 8.5999 167.2 8.1999 167 7.5999C166.8 7.2999 166.7 6.7999 166.7 6.1999ZM167.6 22.0999C167.6 21.1999 167.8 20.3999 168.1 19.5999C168.4 18.7999 168.9 18.0999 169.5 17.3999C170.1 16.7999 170.8 16.2999 171.6 15.9999C172.4 15.6999 173.2 15.4999 174.1 15.4999V38.8999C174.1 40.6999 173.4 42.3999 172.2 43.5999C171 44.8999 169.3 45.5999 167.6 45.5999V22.0999Z" fill="white"/>
<path d="M200 15.3999C200 16.2999 199.8 17.0999 199.5 17.9999C199.2 18.8999 198.7 19.4999 198.1 20.1999C197.5 20.7999 196.8 21.2999 196 21.5999C195.2 21.8999 194.4 22.0999 193.5 22.0999C191.7 22.2999 190.1 23.1999 188.9 24.5999C187.7 25.9999 187 27.7999 187 29.5999V38.7999C187 40.5999 186.3 42.2999 185.1 43.4999C183.9 44.7999 182.2 45.4999 180.5 45.4999V15.4999C181.6 15.4999 182.6 15.7999 183.6 16.2999C184.6 16.7999 185.4 17.5999 186 18.4999C188.2 16.6999 190.8 15.6999 193.6 15.4999L200 15.3999Z" fill="white"/>
</g>
<defs>
<linearGradient id="paint0_linear_576_30" x1="38.0002" y1="17.5055" x2="27.1164" y2="37.4391" gradientUnits="userSpaceOnUse">
<stop offset="0.01" stop-color="#04193F"/>
<stop offset="1" stop-color="#04FFFF"/>
</linearGradient>
<linearGradient id="paint1_linear_576_30" x1="26.2913" y1="46.7116" x2="26.4518" y2="10.8093" gradientUnits="userSpaceOnUse">
<stop offset="0.01" stop-color="#04193F"/>
<stop offset="1" stop-color="#04FFFF"/>
</linearGradient>
<linearGradient id="paint2_linear_576_30" x1="3.92682" y1="41.8113" x2="15.9239" y2="41.9949" gradientUnits="userSpaceOnUse">
<stop offset="0.01" stop-color="#04193F"/>
<stop offset="1" stop-color="#04FFFF"/>
</linearGradient>
<linearGradient id="paint3_linear_576_30" x1="-1.44672" y1="46.7617" x2="24.5115" y2="30.7259" gradientUnits="userSpaceOnUse">
<stop offset="0.01" stop-color="#04193F"/>
<stop offset="1" stop-color="#04FFFF"/>
</linearGradient>
<linearGradient id="paint4_linear_576_30" x1="32.7239" y1="14.627" x2="21.8473" y2="34.5608" gradientUnits="userSpaceOnUse">
<stop offset="0.01" stop-color="#04193F"/>
<stop offset="1" stop-color="#04FFFF"/>
</linearGradient>
<linearGradient id="paint5_linear_576_30" x1="23.5865" y1="46.6972" x2="23.747" y2="10.802" gradientUnits="userSpaceOnUse">
<stop offset="0.01" stop-color="#04193F"/>
<stop offset="1" stop-color="#04FFFF"/>
</linearGradient>
<clipPath id="clip0_576_30">
<rect width="200" height="46" fill="white"/>
</clipPath>
</defs>
</svg>
