<svg width="200" height="46" viewBox="0 0 200 46" fill="none" xmlns="http://www.w3.org/2000/svg">
<g clip-path="url(#clip0_403_14)">
<path d="M39.1101 24.7254C38.7823 26.1586 38.2069 27.5202 37.4112 28.7462C36.5058 30.1818 35.3491 31.4338 33.9994 32.4391C33.4911 32.7528 32.9759 33.0736 32.4467 33.3873C31.4255 34.0099 30.3764 34.6254 29.2995 35.2337C28.1785 35.8682 26.9879 36.5027 25.8599 37.0944L25.7067 36.9732C24.7602 36.1606 23.9672 35.1771 23.3672 34.0717L25.456 32.9595C26.0688 32.6316 26.6815 32.2894 27.3012 31.9472C28.8935 30.8747 30.1905 29.402 31.0681 27.6697C31.7351 26.2832 32.1032 24.766 32.1473 23.2211L32.5163 23.0286C34.8489 21.8167 37.0631 20.7402 39.0892 19.8276C39.2274 20.4581 39.3113 21.0998 39.3399 21.7454C39.4018 22.7448 39.3244 23.7482 39.1101 24.7254Z" fill="url(#paint0_linear_403_14)"/>
<path d="M41.199 38.9051C39.5945 40.8789 37.6023 42.4848 35.3518 43.6185C33.1014 44.7522 30.6431 45.3882 28.1368 45.4853C24.1195 45.7587 20.1249 44.6824 16.7595 42.4198C16.5506 42.27 16.3417 42.1203 16.1398 41.9635C16.0834 41.9223 16.0299 41.877 15.9797 41.828C14.9429 41.0072 14.018 40.0481 13.2294 38.9764C13.1954 38.9417 13.1651 38.9034 13.1388 38.8623C12.9717 38.6271 12.8046 38.3918 12.6515 38.1494C12.1971 37.448 11.8012 36.7087 11.4678 35.9394C11.5374 35.8966 11.6001 35.8396 11.6627 35.7968C14.1833 33.9004 17.4558 31.7118 21.1461 29.459C21.1809 29.8511 21.2366 30.2361 21.3062 30.6139C21.4873 31.6671 21.7985 32.6924 22.2323 33.6652C22.3436 33.9241 22.4692 34.1764 22.6083 34.4209C23.2253 35.5965 24.0519 36.6435 25.0453 37.5078L25.1706 37.6147C25.3586 37.7787 25.5605 37.9355 25.7624 38.0852C28.4813 39.9963 31.7551 40.9015 35.0439 40.6517C37.1988 40.5575 39.3041 39.9601 41.199 38.9051Z" fill="url(#paint1_linear_403_14)"/>
<path d="M15.0675 42.2132C12.4703 43.2999 9.80155 44.198 7.08111 44.9008C6.31918 45.1154 5.51641 45.1277 4.74856 44.9365C4.49346 44.8615 4.25794 44.7291 4.05917 44.5491C3.86041 44.369 3.70344 44.1458 3.5997 43.8956C3.50222 43.6105 3.20282 42.9047 4.42828 41.4361C4.9853 40.7659 5.9601 39.6681 7.01845 38.6272C6.32217 39.4257 5.99491 40.0174 6.17594 40.3453C6.53801 41.0155 8.82877 40.5307 12.3102 39.1619L12.4285 39.3401L12.533 39.4756C13.2683 40.4882 14.1191 41.4073 15.0675 42.2132Z" fill="url(#paint2_linear_403_14)"/>
<path d="M39.862 28.5609L39.2632 28.9743C39.6744 28.2444 40.0216 27.4786 40.3007 26.6859C43.5941 23.8342 47.5351 19.35 48.475 17.3182C48.7536 16.7265 48.475 16.4271 48.475 16.4271L48.3915 16.3201C47.6952 15.6714 44.4436 16.6195 39.7367 18.6799L39.6253 18.7298L39.3955 18.8296L38.8942 19.0577C36.875 19.9631 34.5982 21.0681 32.2029 22.3086L31.3883 22.7292C29.6267 23.656 27.7955 24.6541 25.9294 25.7163C24.5369 26.4863 23.2418 27.2634 21.9746 28.0262L21.146 28.5252L20.777 28.7533C17.0031 31.056 13.7167 33.259 11.2309 35.1268L10.5347 35.6757C9.32378 36.5796 8.18524 37.5808 7.12984 38.67C6.07149 39.7108 5.09669 40.8087 4.53967 41.4789C3.31421 42.9475 3.61361 43.6176 3.71109 43.9384C3.81961 44.1848 3.98022 44.4034 4.18131 44.5785C4.38239 44.7535 4.61895 44.8807 4.87388 44.9507C5.64173 45.1419 6.44449 45.1297 7.20642 44.9151C3.48131 45.8348 0.939889 45.7777 0.285384 44.5373C-0.772964 42.5839 3.07051 38.1567 9.76178 33.0736L10.4581 32.5247C11.2309 31.9472 12.0456 31.3626 12.8881 30.7709L14.3433 29.7728L14.8377 29.4377C16.843 28.0975 19.0154 26.7358 21.2713 25.3955L22.2043 24.8466L23.3462 24.1907C25.9573 22.715 28.5196 21.339 30.9705 20.1699L31.7225 19.7991C32.9967 19.1932 34.2361 18.6228 35.4407 18.1024L35.9768 17.8671L37.0351 17.418L37.5574 17.2113L37.6548 17.1685L37.9264 17.0616L38.3581 16.8904C38.3764 16.8864 38.3954 16.8864 38.4138 16.8904L38.7201 16.7693C46.059 13.9176 51.4134 13.0336 52.4369 14.9228C53.5718 17.1115 48.3706 22.5795 39.862 28.5609Z" fill="url(#paint3_linear_403_14)"/>
<path d="M36.7011 16.5839L35.6915 17.0116L35.3712 17.1542L35.037 17.2968C33.8672 17.803 32.6487 18.359 31.298 19.0078C31.1768 18.7996 31.0394 18.6017 30.8871 18.4161C30.3017 17.6132 29.4748 17.0295 28.5337 16.755L28.2761 16.698C27.7428 16.5903 27.194 16.5903 26.6607 16.698H26.5493C26.972 16.458 27.4092 16.2461 27.8583 16.0635C28.9663 15.5997 30.1439 15.3345 31.3397 15.2792H31.5208C31.9857 15.2675 32.4508 15.2865 32.9133 15.3363L33.1918 15.3719C34.4249 15.5496 35.6149 15.9606 36.7011 16.5839Z" fill="url(#paint4_linear_403_14)"/>
<path d="M37.3208 16.3272C37.2553 16.36 37.1878 16.3885 37.1189 16.4127L36.722 16.5767C35.6414 15.9717 34.4613 15.5753 33.2406 15.4075L32.9621 15.3719C32.4996 15.3221 32.0344 15.3031 31.5695 15.3149H31.3885C30.1927 15.3701 29.0151 15.6353 27.9071 16.0991C27.4579 16.2817 27.0207 16.4936 26.5981 16.7336C26.5655 16.7483 26.5351 16.7675 26.5075 16.7906C26.3822 16.8548 26.2638 16.9332 26.1524 17.0045C24.9326 17.8291 23.8872 18.8966 23.0786 20.1434C22.27 21.3902 21.7146 22.7908 21.4456 24.2619L20.8398 24.6184C18.6117 25.9373 16.4323 27.3061 14.3644 28.6891C13.6681 29.1383 13.0414 29.5874 12.4009 30.0294C11.6001 30.5926 10.8969 31.0988 10.2702 31.5622C10.1711 30.9081 10.1083 30.2488 10.0822 29.5874C9.69233 20.5191 17.1495 12.8125 26.7512 12.3776H27.169C27.866 12.3616 28.5634 12.3854 29.2579 12.4489C31.2543 12.6765 33.1886 13.2988 34.9534 14.2811C35.5307 14.6279 36.072 15.0339 36.5688 15.4931C36.8349 15.7562 37.0859 16.0347 37.3208 16.3272Z" fill="url(#paint5_linear_403_14)"/>
<path d="M91.5124 23.0285C91.4977 28.8423 89.2932 34.4262 85.3581 38.6174C81.4229 42.8085 76.0604 45.2839 70.3872 45.5281H65.4088C64.551 45.5346 63.7003 45.3676 62.9057 45.0364C62.1111 44.7053 61.3883 44.2166 60.7788 43.5985C60.1693 42.9804 59.6851 42.245 59.354 41.4347C59.023 40.6243 58.8517 39.755 58.8499 38.8766V7.10914C58.8526 6.23137 59.0246 5.36279 59.356 4.55327C59.6875 3.74375 60.1718 3.00923 60.7812 2.39187C61.3907 1.77451 62.1132 1.28647 62.9073 0.955764C63.7014 0.625061 64.5516 0.458211 65.4088 0.464787H70.3872C76.0706 0.711145 81.4413 3.19605 85.3778 7.40058C89.3143 11.6051 91.5121 17.2042 91.5124 23.0285ZM84.9535 21.9663C84.4104 13.5182 77.1829 7.10914 68.939 7.10914H65.4576V38.9051H69.5238C71.6431 38.8961 73.7382 38.4431 75.68 37.5738C77.6218 36.7045 79.3692 35.4374 80.8147 33.8506C82.2601 32.2637 83.373 30.3907 84.0848 28.3468C84.7966 26.3029 85.0922 24.1315 84.9535 21.9663Z" fill="#04193F"/>
<path d="M127.211 30.4856V45.528C126.087 45.5379 124.981 45.2447 124.003 44.6777C123.025 44.1108 122.21 43.2902 121.641 42.2985C119.044 44.3944 115.83 45.5271 112.523 45.5118C109.216 45.4966 106.013 44.3342 103.434 42.2145C100.856 40.0948 99.0555 37.1429 98.3266 33.8406C97.5978 30.5382 97.9837 27.0805 99.4214 24.0316C100.859 20.9828 103.264 18.5228 106.242 17.0534C109.221 15.5839 112.599 15.1916 115.823 15.9405C119.048 16.6894 121.93 18.5353 123.998 21.177C126.066 23.8186 127.199 27.1 127.211 30.4856ZM120.652 30.4856C120.641 28.8326 120.152 27.22 119.246 25.8516C118.34 24.4832 117.059 23.4202 115.563 22.7971C114.068 22.174 112.426 22.0186 110.844 22.3506C109.263 22.6826 107.813 23.487 106.678 24.6623C105.542 25.8376 104.773 27.3311 104.466 28.954C104.159 30.5769 104.329 32.2565 104.954 33.7806C105.579 35.3047 106.632 36.6049 107.978 37.5169C109.325 38.429 110.905 38.9121 112.519 38.9051C113.595 38.9051 114.66 38.6867 115.652 38.2625C116.645 37.8382 117.546 37.2166 118.302 36.4335C119.058 35.6505 119.656 34.7216 120.059 33.7006C120.462 32.6796 120.664 31.5868 120.652 30.4856Z" fill="#04193F"/>
<path d="M161.266 31.2913C161.275 31.5824 161.256 31.8737 161.21 32.1611H161.266V45.5282C160.195 45.5271 159.141 45.2544 158.198 44.7344C157.255 44.2144 156.453 43.4633 155.863 42.5482C153.186 44.6759 149.835 45.7145 146.456 45.4641C139.11 44.9722 133.526 38.3777 133.526 30.7994V15.4433C134.383 15.4376 135.233 15.6054 136.027 15.937C136.821 16.2685 137.543 16.7574 138.151 17.3754C138.76 17.9934 139.244 18.7285 139.574 19.5383C139.905 20.3482 140.076 21.217 140.078 22.0947V31.2913C140.073 32.3428 140.285 33.3836 140.7 34.3455C141.115 35.3073 141.723 36.1687 142.486 36.8733C143.248 37.5778 144.147 38.1097 145.124 38.434C146.101 38.7584 147.134 38.8679 148.155 38.7555C150 38.5251 151.696 37.6039 152.918 36.1691C154.139 34.7344 154.799 32.8877 154.769 30.9848V22.0947C154.771 20.3312 155.456 18.6405 156.674 17.3935C157.892 16.1465 159.543 15.4451 161.266 15.4433V31.2913Z" fill="#04193F"/>
<path d="M166.732 6.23944C166.726 5.40897 166.961 4.59549 167.407 3.90185C167.853 3.20822 168.49 2.66559 169.237 2.34258C169.985 2.01958 170.809 1.9307 171.605 2.08718C172.402 2.24367 173.135 2.63851 173.713 3.22175C174.29 3.80499 174.686 4.55044 174.849 5.36385C175.013 6.17726 174.937 7.02209 174.632 7.79151C174.327 8.56092 173.805 9.22037 173.134 9.68646C172.463 10.1525 171.672 10.4043 170.86 10.41C170.321 10.4166 169.786 10.3136 169.286 10.1071C168.785 9.90054 168.33 9.5945 167.946 9.20667C167.562 8.81883 167.257 8.3569 167.049 7.84759C166.84 7.33827 166.732 6.79168 166.732 6.23944ZM167.581 22.0947C167.581 21.2212 167.749 20.3562 168.076 19.5492C168.402 18.7422 168.88 18.009 169.484 17.3913C170.087 16.7737 170.803 16.2837 171.591 15.9495C172.379 15.6152 173.224 15.4432 174.077 15.4432V38.8125C174.077 40.5825 173.395 42.281 172.178 43.5386C170.962 44.7962 169.31 45.5112 167.581 45.5281V22.0947Z" fill="#04193F"/>
<path d="M200 15.4431C199.996 16.321 199.824 17.1894 199.492 17.9989C199.16 18.8084 198.676 19.543 198.067 20.1608C197.458 20.7785 196.736 21.2673 195.942 21.5991C195.148 21.9309 194.298 22.0993 193.441 22.0946C191.646 22.3242 189.995 23.2176 188.798 24.6068C187.602 25.996 186.943 27.7851 186.945 29.6372V38.8338C186.943 40.6143 186.251 42.3214 185.022 43.5804C183.792 44.8394 182.125 45.5476 180.386 45.5495V15.4645C181.466 15.4632 182.53 15.7344 183.483 16.2542C184.436 16.7739 185.25 17.5262 185.852 18.4445C188.02 16.6724 190.671 15.6314 193.441 15.4645L200 15.4431Z" fill="#04193F"/>
</g>
<defs>
<linearGradient id="paint0_linear_403_14" x1="37.6967" y1="17.3396" x2="26.8129" y2="37.2732" gradientUnits="userSpaceOnUse">
<stop offset="0.01" stop-color="#04193F"/>
<stop offset="1" stop-color="#04FFFF"/>
</linearGradient>
<linearGradient id="paint1_linear_403_14" x1="26.2638" y1="46.7115" x2="26.4243" y2="10.8092" gradientUnits="userSpaceOnUse">
<stop offset="0.01" stop-color="#04193F"/>
<stop offset="1" stop-color="#04FFFF"/>
</linearGradient>
<linearGradient id="paint2_linear_403_14" x1="3.92695" y1="41.8282" x2="15.924" y2="42.0118" gradientUnits="userSpaceOnUse">
<stop offset="0.01" stop-color="#04193F"/>
<stop offset="1" stop-color="#04FFFF"/>
</linearGradient>
<linearGradient id="paint3_linear_403_14" x1="-1.07237" y1="47.3675" x2="24.8859" y2="31.3317" gradientUnits="userSpaceOnUse">
<stop offset="0.01" stop-color="#04193F"/>
<stop offset="1" stop-color="#04FFFF"/>
</linearGradient>
<linearGradient id="paint4_linear_403_14" x1="32.6905" y1="14.6091" x2="21.8139" y2="34.5429" gradientUnits="userSpaceOnUse">
<stop offset="0.01" stop-color="#04193F"/>
<stop offset="1" stop-color="#04FFFF"/>
</linearGradient>
<linearGradient id="paint5_linear_403_14" x1="23.5623" y1="46.6973" x2="23.7228" y2="10.8021" gradientUnits="userSpaceOnUse">
<stop offset="0.01" stop-color="#04193F"/>
<stop offset="1" stop-color="#04FFFF"/>
</linearGradient>
<clipPath id="clip0_403_14">
<rect width="200" height="45.0704" fill="white" transform="translate(0 0.464844)"/>
</clipPath>
</defs>
</svg>
