<svg width="30" height="36" viewBox="0 0 30 36" fill="none" xmlns="http://www.w3.org/2000/svg">
<path d="M16.0614 0.387229C15.7529 0.165947 15.3824 0.0478535 15.0027 0.0498291C14.6231 0.0518047 14.2538 0.173748 13.9476 0.398229C10.5852 2.83473 0.333252 11.1287 0.333252 21.6667C0.333252 27.6196 3.90459 32.7456 9.01225 35.0427C8.13839 33.8129 7.66816 32.342 7.66658 30.8334C7.63542 24.9282 14.1896 18.1962 14.4683 18.0001C14.623 17.8892 14.8086 17.8295 14.999 17.8295C15.1894 17.8295 15.375 17.8892 15.5297 18.0001C15.8084 18.1962 22.3333 23.4524 22.3333 30.8371C22.3333 32.4027 21.8291 33.8492 20.9894 35.0427C26.0952 32.7456 29.6666 27.6214 29.6666 21.6759C29.6666 10.9307 19.4329 2.77973 16.0614 0.387229Z" fill="#fff"/>
</svg>
