<svg width="34" height="34" viewBox="0 0 34 34" fill="none" xmlns="http://www.w3.org/2000/svg">
<path d="M16.3118 8.66506H9.83676C9.15251 8.66486 8.48477 8.87523 7.92422 9.26762C7.36366 9.66002 6.93744 10.2154 6.70342 10.8584L0.436758 28.0951C0.215091 28.7034 0.366757 29.3851 0.823424 29.8434L1.31176 30.3317L12.0151 19.6284C12.0134 19.5851 12.0018 19.5417 12.0018 19.4984C12.0018 19.0039 12.1484 18.5206 12.4231 18.1095C12.6978 17.6984 13.0882 17.3779 13.545 17.1887C14.0019 16.9995 14.5045 16.95 14.9895 17.0464C15.4744 17.1429 15.9199 17.381 16.2695 17.7306C16.6192 18.0803 16.8573 18.5257 16.9537 19.0107C17.0502 19.4956 17.0007 19.9983 16.8115 20.4551C16.6222 20.9119 16.3018 21.3024 15.8907 21.5771C15.4796 21.8518 14.9962 21.9984 14.5018 21.9984C14.4584 21.9984 14.4151 21.9867 14.3718 21.9851L3.66842 32.6884L4.15676 33.1767C4.38084 33.4014 4.66457 33.5572 4.97439 33.6257C5.28421 33.6942 5.60717 33.6726 5.90509 33.5634L23.1418 27.2951C23.7847 27.0611 24.3401 26.6348 24.7325 26.0743C25.1249 25.5137 25.3353 24.846 25.3351 24.1617V17.6867L28.6668 14.3567L19.6434 5.3334L16.3118 8.66506ZM30.2334 12.1017L21.9001 3.7684L25.4334 0.233398L33.7668 8.56673L30.2334 12.1017Z" fill="white"/>
</svg>
