<svg width="34" height="30" viewBox="0 0 34 30" fill="none" xmlns="http://www.w3.org/2000/svg">
<path d="M31.9997 6.66667H21.9997C21.5576 6.66667 21.1337 6.84226 20.8212 7.15482C20.5086 7.46738 20.333 7.89131 20.333 8.33333V13.3333H16.9997V1.66667C16.9997 1.22464 16.8241 0.800716 16.5115 0.488155C16.199 0.175595 15.775 0 15.333 0H1.99967C1.55765 0 1.13372 0.175595 0.821163 0.488155C0.508602 0.800716 0.333008 1.22464 0.333008 1.66667V28.3333C0.333008 28.7754 0.508602 29.1993 0.821163 29.5118C1.13372 29.8244 1.55765 30 1.99967 30H31.9997C32.4417 30 32.8656 29.8244 33.1782 29.5118C33.4907 29.1993 33.6663 28.7754 33.6663 28.3333V8.33333C33.6663 7.89131 33.4907 7.46738 33.1782 7.15482C32.8656 6.84226 32.4417 6.66667 31.9997 6.66667ZM10.333 5H13.6663V8.33333H10.333V5ZM6.99967 21.6667H3.66634V18.3333H6.99967V21.6667ZM6.99967 15H3.66634V11.6667H6.99967V15ZM6.99967 8.33333H3.66634V5H6.99967V8.33333ZM13.6663 21.6667H10.333V18.3333H13.6663V21.6667ZM13.6663 15H10.333V11.6667H13.6663V15ZM28.6663 21.6667H25.333V18.3333H28.6663V21.6667ZM28.6663 15H25.333V11.6667H28.6663V15Z" fill="white"/>
</svg>
