<svg width="35" height="27" viewBox="0 0 35 27" fill="none" xmlns="http://www.w3.org/2000/svg">
<path d="M22.5 24.7858C23.7426 24.7858 24.75 23.7784 24.75 22.5358V7.10721C24.75 5.86457 23.7426 4.85722 22.5 4.85722C21.2574 4.85722 20.25 5.86457 20.25 7.10722V22.5358C20.25 23.7784 21.2574 24.7858 22.5 24.7858ZM13.5 24.7858C14.7426 24.7858 15.75 23.7784 15.75 22.5358L15.75 11.5358C15.75 10.2931 14.7426 9.28579 13.5 9.28579C12.2574 9.28579 11.25 10.2931 11.25 11.5358L11.25 22.5358C11.25 23.7784 12.2574 24.7858 13.5 24.7858ZM31.5 24.7858C32.7426 24.7858 33.75 23.7784 33.75 22.5358V2.67865C33.75 1.436 32.7426 0.428642 31.5 0.428642C30.2574 0.428642 29.25 1.436 29.25 2.67864L29.25 22.5358C29.25 23.7784 30.2574 24.7858 31.5 24.7858ZM4.5 24.7858C5.74264 24.7858 6.75 23.7784 6.75 22.5358V15.9644C6.75 14.7217 5.74264 13.7144 4.5 13.7144C3.25736 13.7144 2.25 14.7217 2.25 15.9644V22.5358C2.25 23.7784 3.25736 24.7858 4.5 24.7858ZM2.21429 38.0715C0.991371 38.0715 0 37.0801 0 35.8572C0 34.6343 0.991371 33.6429 2.21429 33.6429H25.0388C26.1219 33.6429 27 32.7649 27 31.6817C27 29.9421 29.0969 29.0637 30.3368 30.2839L33.3128 33.2127C34.7899 34.6663 34.7899 37.0481 33.3128 38.5017L30.3368 41.4305C29.0969 42.6508 27 41.7724 27 40.0327C27 38.9496 26.1219 38.0715 25.0388 38.0715H2.21429Z" fill="white"/>
</svg>
