<svg width="17" height="17" viewBox="0 0 17 17" fill="none" xmlns="http://www.w3.org/2000/svg">
<path d="M16.017 6.48448C15.9643 6.32318 15.8261 6.20796 15.6582 6.18162L10.6545 5.47056L8.40278 0.94416C8.32707 0.792731 8.17235 0.697266 8.00446 0.697266C7.83657 0.697266 7.68185 0.792731 7.60613 0.947453L5.38408 5.48702L0.380347 6.231C0.212459 6.25734 0.0741979 6.37255 0.0215271 6.53386C-0.0311438 6.69516 0.0149432 6.87293 0.136745 6.98815L3.76774 10.5072L2.9283 15.4912C2.89867 15.6591 2.9678 15.827 3.10607 15.9257C3.18178 15.9817 3.27395 16.0113 3.36613 16.0113C3.43855 16.0113 3.50768 15.9949 3.57352 15.9587L8.04067 13.5918L12.521 15.9323C12.5868 15.9652 12.656 15.9817 12.7251 15.9817C12.9687 15.9817 13.1695 15.7809 13.1695 15.5373C13.1695 15.5011 13.1662 15.4682 13.1563 15.4352L12.2906 10.4809L15.8985 6.94206C16.0269 6.82355 16.0697 6.64578 16.017 6.48448Z" fill="#FFCC00"/>
</svg>
