<svg width="19" height="19" viewBox="0 0 19 19" fill="none" xmlns="http://www.w3.org/2000/svg">
<path d="M18.4258 8.92525L1.42576 0.925245C1.25458 0.844695 1.06406 0.814358 0.876322 0.837756C0.688587 0.861154 0.511339 0.937327 0.365164 1.05743C0.218988 1.17753 0.109881 1.33664 0.0505117 1.51627C-0.00885731 1.6959 -0.0160522 1.88869 0.0297628 2.07225L1.24176 6.92124L8.99976 9.83025L1.24176 12.7392L0.0297628 17.5882C-0.0169142 17.7719 -0.0103198 17.9651 0.0487745 18.1452C0.107869 18.3253 0.21702 18.4848 0.363459 18.6051C0.509899 18.7255 0.687572 18.8016 0.875696 18.8246C1.06382 18.8477 1.25461 18.8167 1.42576 18.7352L18.4258 10.7352C18.5976 10.6545 18.7428 10.5265 18.8446 10.3662C18.9463 10.206 19.0004 10.0201 19.0004 9.83025C19.0004 9.64041 18.9463 9.4545 18.8446 9.29425C18.7428 9.13399 18.5976 9.006 18.4258 8.92525Z" fill="#04193F"/>
</svg>
